<?xml version="1.0" encoding="UTF-8"?>
<svg width="512px" height="512px" viewBox="0 0 512 512" version="1.1" xmlns="http://www.w3.org/2000/svg" xmlns:xlink="http://www.w3.org/1999/xlink">
    <title>IconBlack</title>
    <defs></defs>
    <g id="Icons-&amp;-Logos" stroke="none" stroke-width="1" fill="none" fill-rule="evenodd">
        <g id="IconBlack">
            <g id="Group" transform="translate(7.000000, 6.000000)">
                <path d="M498,465.260415 C498,483.340618 483.328154,497.994896 465.234154,497.994896 L32.7658462,497.994896 C14.6654615,497.994896 0,483.340618 0,465.260415 L0,33.1155038 C0,15.0353013 14.6654615,0.374643038 32.7658462,0.374643038 L465.234154,0.374643038 C483.328154,0.374643038 498,15.0353013 498,33.1155038 L498,465.260415 Z" id="Fill-10" fill="#fff"></path>
                <path d="M498,465.260415 C498,483.340618 483.328154,497.994896 465.234154,497.994896 L32.7658462,497.994896 C14.6654615,497.994896 0,483.340618 0,465.260415 L0,33.1155038 C0,15.0353013 14.6654615,0.374643038 32.7658462,0.374643038 L465.234154,0.374643038 C483.328154,0.374643038 498,15.0353013 498,33.1155038 L498,465.260415 Z" id="Stroke-11" stroke="#fff" stroke-width="12.7570921"></path>
                <path d="M100.716669,247.261276 C100.716669,265.870997 115.867362,280.971858 134.3189,280.971858 C153.044977,280.971858 168.195669,265.870997 168.195669,247.261276 C168.195669,228.645175 153.044977,213.544314 134.3189,213.544314 C115.867362,213.544314 100.716669,228.645175 100.716669,247.261276" id="Fill-12" fill="#DB222A"></path>
                <polygon id="Fill-13" fill="#DB222A" points="199.519231 312.827848 234.870846 312.827848 234.870846 132.695696 199.519231 132.695696"></polygon>
                <polygon id="Fill-14" fill="#DB222A" points="269.922385 365.231089 305.274 365.231089 305.274 132.325671 269.922385 132.325671"></polygon>
                <path d="M333.359285,247.261276 C333.359285,265.870997 348.509977,280.971858 366.961515,280.971858 C385.693977,280.971858 400.844669,265.870997 400.844669,247.261276 C400.844669,228.645175 385.693977,213.544314 366.961515,213.544314 C348.509977,213.544314 333.359285,228.645175 333.359285,247.261276" id="Fill-15" fill="#DB222A"></path>
            </g>
        </g>
    </g>
</svg>
